# xmcd
#
# Track frame offsets:
#	150
#	16655
#	31399
#	46676
#	65718
#	80807
#	96476
#
# Disc length: 1464 seconds
#
# Revision: 1
# Processed by: cddbd v1.5.2PL0 Copyright (c) Steve Scherf et al.
# Submitted via: audiograbber 1.83.01
#
DISCID=5405b607
DTITLE=Single Top 100 - Volume 430 Deel 2
DYEAR=2010
DGENRE=Hollands
TTITLE0=No Nonsens - Rollator
TTITLE1=Zingende Decoupeerzaag - Dit liedje
TTITLE2=Rachel - Cause I
TTITLE3=Imre Griffioen - Nog een keer
TTITLE4=Imre Griffioen - Hij vertrok
TTITLE5=Zooi - Zacht en bijzonder
TTITLE6=Anneke Douma - It giet oan
EXTD=
EXTT0=
EXTT1=
EXTT2=
EXTT3=
EXTT4=
EXTT5=
EXTT6=
PLAYORDER=
